# xmcd
#
# Track frame offsets:
#	150
#	30086
#	55479
#	83061
#	114107
#	135782
#	163691
#	191000
#
# Disc length: 2996 seconds
#
# Revision: 1
# Processed by: cddbd v1.5.1PL0 Copyright (c) Steve Scherf et al.
# Submitted via: audiograbber 1.80
#
DISCID=540bb208
DTITLE=Keleti Front - 1
DYEAR=1900
DGENRE=
TTITLE0=mindenkinek blues
TTITLE1=Éva nõvér blues
TTITLE2=Keleti blues
TTITLE3=Isten veled blues
TTITLE4=Rég nem látott blues
TTITLE5=Belvárosi kávéház
TTITLE6=Szürke napok
TTITLE7=Hol van már a nõ blues
EXTD=
EXTT0=
EXTT1=
EXTT2=
EXTT3=
EXTT4=
EXTT5=
EXTT6=
EXTT7=
PLAYORDER=
